<svg xmlns="http://www.w3.org/2000/svg" viewBox="0 0 757.22 623.45">
  <title>Card Background</title>
  <g>
    <g opacity="0.13">
      <path d="M576.72,397.45c-99.53,0-180.5-81-180.5-180.5s81-180.5,180.5-180.5,180.5,81,180.5,180.5S676.25,397.45,576.72,397.45Zm0-360c-99,0-179.5,80.52-179.5,179.5s80.53,179.5,179.5,179.5,179.5-80.53,179.5-179.5S675.7,37.45,576.72,37.45Z" fill="#fff"/>
    </g>
    <g opacity="0.13">
      <path d="M576.72,391.45c-96.22,0-174.5-78.28-174.5-174.5s78.28-174.5,174.5-174.5,174.5,78.28,174.5,174.5S672.94,391.45,576.72,391.45Zm0-348c-95.67,0-173.5,77.83-173.5,173.5s77.83,173.5,173.5,173.5,173.5-77.83,173.5-173.5S672.39,43.45,576.72,43.45Z" fill="#fff"/>
    </g>
    <g opacity="0.13">
      <path d="M576.72,387.45c-94,0-170.5-76.49-170.5-170.5s76.49-170.5,170.5-170.5,170.5,76.48,170.5,170.5S670.74,387.45,576.72,387.45Zm0-340c-93.46,0-169.5,76-169.5,169.5s76,169.5,169.5,169.5,169.5-76,169.5-169.5S670.18,47.45,576.72,47.45Z" fill="#fff"/>
    </g>
    <g opacity="0.1">
      <path d="M349.72,488.45A120.5,120.5,0,1,1,470.22,368,120.64,120.64,0,0,1,349.72,488.45Zm0-240A119.5,119.5,0,1,0,469.22,368,119.63,119.63,0,0,0,349.72,248.45Z" fill="#fff"/>
    </g>
    <g opacity="0.1">
      <path d="M369.72,504.45A116.5,116.5,0,1,1,486.22,388,116.63,116.63,0,0,1,369.72,504.45Zm0-232A115.5,115.5,0,1,0,485.22,388,115.63,115.63,0,0,0,369.72,272.45Z" fill="#fff"/>
    </g>
    <g opacity="0.1">
      <path d="M389.72,501.78A113.84,113.84,0,1,1,503.55,388,114,114,0,0,1,389.72,501.78Zm0-226.67A112.84,112.84,0,1,0,502.55,388,113,113,0,0,0,389.72,275.11Z" fill="#fff"/>
    </g>
    <g opacity="0.13">
      <path d="M570.84,623.45h-1V233.89c0-59.57,2.15-102.78,5.9-118.56C583,84.7,617,55,644.18,35.42A480.52,480.52,0,0,1,702,0l.45.89c-1.12.56-112,56.58-125.74,114.67-3.67,15.47-5.87,59.71-5.87,118.33Z" fill="#fff"/>
    </g>
    <g opacity="0.13">
      <path d="M674.33,477.77c-48.94,0-117.41-1.19-192.87-6-86.38-5.57-164.89-14.79-233.34-27.4C162.54,428.54,92.52,407.38,40,381.43l.44-.9c118.77,58.7,305.41,81.44,441.07,90.19,147,9.47,267.49,5,268.69,5l0,1C749.66,476.7,720.78,477.77,674.33,477.77Z" fill="#fff"/>
    </g>
    <g opacity="0.13">
      <path d="M670.06,557.77c-51.71,0-124-1.26-203.74-6.4-91.25-5.88-174.17-15.61-246.48-28.94C129.44,505.77,55.47,483.42,0,456l.44-.89c125.46,62,322.63,86,465.94,95.27,155.3,10,282.55,5.28,283.82,5.23l0,1C749.62,556.64,719.12,557.77,670.06,557.77Z" fill="#fff"/>
    </g>
  </g>
</svg>